<svg width="364" height="97" viewBox="0 0 364 97" fill="none" xmlns="http://www.w3.org/2000/svg">
<path d="M82.36 63.432C79.768 63.432 77.272 63.096 74.872 62.424C72.504 61.72 70.536 60.744 68.968 59.496L71.368 54.12C74.664 56.424 78.344 57.576 82.408 57.576C84.584 57.576 86.248 57.24 87.4 56.568C88.584 55.864 89.176 54.888 89.176 53.64C89.176 52.552 88.632 51.704 87.544 51.096C86.488 50.456 84.616 49.848 81.928 49.272C78.92 48.664 76.52 47.928 74.728 47.064C72.968 46.168 71.672 45.096 70.84 43.848C70.04 42.568 69.64 40.984 69.64 39.096C69.64 37.048 70.2 35.208 71.32 33.576C72.472 31.944 74.072 30.68 76.12 29.784C78.168 28.856 80.536 28.392 83.224 28.392C85.656 28.392 87.992 28.744 90.232 29.448C92.472 30.152 94.264 31.112 95.608 32.328L93.208 37.704C90.2 35.4 86.888 34.248 83.272 34.248C81.352 34.248 79.816 34.632 78.664 35.4C77.512 36.168 76.936 37.208 76.936 38.52C76.936 39.288 77.144 39.928 77.56 40.44C78.008 40.952 78.744 41.416 79.768 41.832C80.792 42.216 82.248 42.6 84.136 42.984C88.52 43.944 91.672 45.192 93.592 46.728C95.544 48.264 96.52 50.36 96.52 53.016C96.52 56.216 95.272 58.76 92.776 60.648C90.28 62.504 86.808 63.432 82.36 63.432ZM132.483 28.824V63H125.139V48.648H109.299V63H101.955V28.824H109.299V42.648H125.139V28.824H132.483ZM162.209 55.416H146.225L142.961 63H135.425L151.121 28.824H157.169L172.865 63H165.473L162.209 55.416ZM159.761 49.704L154.241 36.888L148.721 49.704H159.761ZM204.631 63H196.711L192.343 51.624C191.991 50.728 191.447 50.104 190.711 49.752C190.007 49.4 189.111 49.224 188.023 49.224H183.175V63H175.783V28.824H190.999C194.967 28.824 197.975 29.688 200.023 31.416C202.071 33.144 203.095 35.624 203.095 38.856C203.095 41.128 202.487 43.08 201.271 44.712C200.087 46.344 198.375 47.512 196.135 48.216C198.151 48.632 199.607 50.024 200.503 52.392L204.631 63ZM189.895 43.512C192.039 43.512 193.607 43.16 194.599 42.456C195.591 41.72 196.087 40.584 196.087 39.048C196.087 37.512 195.591 36.392 194.599 35.688C193.607 34.952 192.039 34.584 189.895 34.584H183.079V43.512H189.895ZM209.767 28.824H222.967C226.711 28.824 229.927 29.496 232.615 30.84C235.303 32.184 237.351 34.136 238.759 36.696C240.199 39.256 240.919 42.312 240.919 45.864C240.919 49.448 240.215 52.52 238.807 55.08C237.399 57.64 235.351 59.608 232.663 60.984C229.975 62.328 226.743 63 222.967 63H209.767V28.824ZM222.487 56.952C229.783 56.952 233.431 53.256 233.431 45.864C233.431 38.536 229.783 34.872 222.487 34.872H217.255V56.952H222.487ZM248.047 28.824H250.015V61.176H268.207V63H248.047V28.824ZM294.549 53.544H275.637L271.605 63H269.445L284.133 28.824H286.101L300.789 63H298.629L294.549 53.544ZM293.733 51.624L285.093 31.464L276.453 51.624H293.733ZM325.062 45.48C327.014 45.992 328.534 46.968 329.622 48.408C330.71 49.816 331.254 51.592 331.254 53.736C331.254 56.776 330.294 59.08 328.374 60.648C326.486 62.216 323.766 63 320.214 63H307.062V28.824H319.686C323.142 28.824 325.798 29.592 327.654 31.128C329.542 32.664 330.486 34.888 330.486 37.8C330.486 39.656 330.006 41.24 329.046 42.552C328.118 43.864 326.79 44.84 325.062 45.48ZM309.078 44.664H319.446C322.358 44.664 324.566 44.056 326.07 42.84C327.574 41.624 328.326 39.848 328.326 37.512C328.326 32.968 325.366 30.696 319.446 30.696H309.078V44.664ZM320.166 61.128C323.206 61.128 325.446 60.552 326.886 59.4C328.358 58.216 329.094 56.408 329.094 53.976C329.094 49.08 326.118 46.632 320.166 46.632H309.078V61.128H320.166ZM349.584 63.384C346.896 63.384 344.544 63.016 342.528 62.28C340.544 61.544 338.752 60.376 337.152 58.776L338.16 57.096C339.856 58.664 341.568 59.784 343.296 60.456C345.024 61.096 347.12 61.416 349.584 61.416C352.624 61.416 354.976 60.776 356.64 59.496C358.336 58.184 359.184 56.36 359.184 54.024C359.184 52.68 358.768 51.592 357.936 50.76C357.104 49.896 356.064 49.256 354.816 48.84C353.6 48.392 351.968 47.928 349.92 47.448C347.2 46.808 345.072 46.216 343.536 45.672C342.032 45.128 340.688 44.232 339.504 42.984C338.32 41.736 337.728 40.04 337.728 37.896C337.728 36.008 338.208 34.36 339.168 32.952C340.128 31.512 341.488 30.408 343.248 29.64C345.04 28.84 347.136 28.44 349.536 28.44C354.272 28.44 358.096 29.976 361.008 33.048L360 34.728C358.368 33.224 356.72 32.136 355.056 31.464C353.392 30.76 351.552 30.408 349.536 30.408C346.464 30.408 344.064 31.08 342.336 32.424C340.64 33.736 339.792 35.592 339.792 37.992C339.792 40.04 340.528 41.56 342 42.552C343.504 43.544 345.6 44.376 348.288 45.048L350.448 45.576C352.784 46.12 354.672 46.664 356.112 47.208C357.552 47.72 358.768 48.536 359.76 49.656C360.784 50.776 361.296 52.28 361.296 54.168C361.296 55.96 360.816 57.56 359.856 58.968C358.896 60.344 357.52 61.432 355.728 62.232C353.968 63 351.92 63.384 349.584 63.384Z" fill="white"/>
<path d="M10.1091 90.9218L10.1091 70.7037L27.6185 80.8127L10.1091 90.9218Z" fill="white"/>
<path d="M27.8505 79.9298L10.341 69.8207L27.8505 59.7116L27.8505 79.9298Z" fill="white"/>
<path d="M28.7484 79.9298L28.7484 59.7116L46.2578 69.8207L28.7484 79.9298Z" fill="white"/>
<path d="M46.7068 69.1547L29.1973 59.0457L46.7068 48.9366L46.7068 69.1547Z" fill="white"/>
<path d="M28.9654 58.3797L28.9654 38.1616L46.4748 48.2707L28.9654 58.3797Z" fill="white"/>
<path d="M28.0675 58.3797L10.558 48.2706L28.0675 38.1616L28.0675 58.3797Z" fill="white"/>
<path d="M10.1091 47.6047L10.1091 27.3866L27.6185 37.4956L10.1091 47.6047Z" fill="white"/>
<path d="M28.0675 36.8297L10.558 26.7206L28.0675 16.6115L28.0675 36.8297Z" fill="white"/>
<path d="M46.6918 26.9376L29.1824 37.0467L29.1824 16.8285L46.6918 26.9376Z" fill="white"/>
<path d="M46.9238 5.83648L46.9238 26.0546L29.4143 15.9456L46.9238 5.83648Z" fill="white"/>
</svg>
